<svg width="28" height="28" viewBox="0 0 28 28" fill="none" xmlns="http://www.w3.org/2000/svg">
<path d="M10.7292 1.9375C9.3727 1.9375 8.29692 1.9375 7.43107 2.00802C6.54411 2.07978 5.79504 2.23072 5.11056 2.57713C3.99998 3.14089 3.09719 4.04044 2.53167 5.14678C2.1826 5.82724 2.03104 6.57451 1.95899 7.45786C1.88818 8.32019 1.88818 9.3916 1.88818 10.7426V17.2577C1.88818 18.6087 1.88818 19.6801 1.95899 20.5424C2.03104 21.4258 2.1826 22.1718 2.53042 22.8548C3.09669 23.9604 3.9999 24.859 5.11056 25.4219C5.7938 25.7696 6.54411 25.9205 7.43107 25.9923C8.29692 26.0628 9.3727 26.0628 10.7292 26.0628H17.2709C18.6274 26.0628 19.7032 26.0628 20.569 25.9923C21.456 25.9205 22.2051 25.7696 22.8908 25.4232C24.0007 24.8595 24.903 23.9604 25.4684 22.8548C25.8175 22.1718 25.9691 21.4258 26.0411 20.5424C26.1119 19.6801 26.1119 18.6087 26.1119 17.2577V10.7426C26.1119 9.3916 26.1119 8.32019 26.0411 7.45786C25.9691 6.57451 25.8175 5.82848 25.4697 5.14678C24.904 4.0409 24.0012 3.1418 22.8908 2.57837C22.2051 2.23072 21.456 2.07978 20.569 2.00802C19.7032 1.9375 18.6274 1.9375 17.2709 1.9375H10.7292ZM19.2796 7.19558C19.2796 6.94949 19.3778 6.71347 19.5525 6.53946C19.7272 6.36544 19.9642 6.26768 20.2113 6.26768H20.8324C21.0795 6.26768 21.3165 6.36544 21.4912 6.53946C21.6659 6.71347 21.7641 6.94949 21.7641 7.19558C21.7641 7.44167 21.6659 7.67769 21.4912 7.8517C21.3165 8.02572 21.0795 8.12348 20.8324 8.12348H20.2113C19.9642 8.12348 19.7272 8.02572 19.5525 7.8517C19.3778 7.67769 19.2796 7.44167 19.2796 7.19558ZM11.569 9.33345C12.1855 9.00227 12.862 8.79657 13.5591 8.72835C14.2562 8.66013 14.96 8.73075 15.6294 8.93608C16.2988 9.14142 16.9205 9.47738 17.4583 9.92438C17.9961 10.3714 18.4391 10.9205 18.7617 11.5397C19.0843 12.159 19.28 12.8359 19.3372 13.5312C19.3945 14.2265 19.3123 14.9262 19.0954 15.5895C18.8785 16.2528 18.5312 16.8665 18.0738 17.3948C17.6164 17.9232 17.058 18.3556 16.4311 18.6669C15.1912 19.2826 13.7579 19.3882 12.4405 18.9608C11.1231 18.5335 10.0271 17.6076 9.38904 16.3827C8.75096 15.1579 8.62192 13.7323 9.02974 12.4135C9.43756 11.0948 10.3496 9.98854 11.569 9.33345Z" fill="white" fill-opacity="0.6"/>
</svg>
