<svg width="332" height="122" viewBox="0 0 332 122" fill="none" xmlns="http://www.w3.org/2000/svg">
<path d="M74.27 120.05C72.8233 120.423 71.1667 120.727 69.3 120.96C67.4333 121.193 65.6133 121.193 63.84 120.96C62.0667 120.773 60.4567 120.237 59.01 119.35C57.61 118.51 56.63 117.133 56.07 115.22C55.6967 114.1 55.58 112.933 55.72 111.72C55.9067 110.507 56.21 109.363 56.63 108.29C57.4233 106.33 58.4967 104.51 59.85 102.83C61.25 101.197 62.79 99.7033 64.47 98.35C66.1967 97.0433 67.9933 95.8533 69.86 94.78C71.7733 93.7067 73.6633 92.75 75.53 91.91C81.4567 89.2033 87.5467 87.15 93.8 85.75C100.053 84.3033 106.4 83.23 112.84 82.53C112.98 81.2233 112.957 79.9167 112.77 78.61C112.583 77.3033 112.187 75.9967 111.58 74.69C110.553 72.45 109.013 70.7467 106.96 69.58C104.953 68.4133 102.783 67.5733 100.45 67.06C98.07 66.5467 95.6433 66.29 93.17 66.29C90.6967 66.2433 88.2467 66.36 85.82 66.64C80.8267 67.2 75.9267 68.4833 71.12 70.49C70.1867 71.33 69.2533 72.1467 68.32 72.94C67.4333 73.7333 66.5 74.5033 65.52 75.25C64.3067 76.1833 63.0233 76.9767 61.67 77.63C60.3633 78.2367 58.94 78.5633 57.4 78.61C56.9333 78.61 56.5833 78.3767 56.35 77.91C56.1633 77.3967 56.2567 76.9767 56.63 76.65C57.6567 75.81 58.6833 75.0167 59.71 74.27C60.7833 73.4767 61.88 72.7533 63 72.1C64.12 71.4 65.24 70.7467 66.36 70.14C67.5267 69.5333 68.7167 68.9733 69.93 68.46C73.43 65.2867 76.72 61.95 79.8 58.45C82.88 54.95 85.7967 51.31 88.55 47.53C90.23 45.2433 91.84 42.8633 93.38 40.39C94.1733 39.13 94.92 37.8467 95.62 36.54C96.3667 35.2333 96.95 33.8567 97.37 32.41C97.6033 31.7567 97.79 31.0333 97.93 30.24C98.1167 29.4 98.0933 28.6533 97.86 28C97.6267 27.44 97.2533 27.09 96.74 26.95C96.2733 26.7633 95.7833 26.6933 95.27 26.74C93.9633 26.8333 92.68 27.16 91.42 27.72C90.16 28.28 88.97 28.84 87.85 29.4C83.93 31.4067 80.2667 33.81 76.86 36.61C73.5 39.3633 70.28 42.3033 67.2 45.43C66.1267 49.5367 64.7267 53.5033 63 57.33C61.2733 61.1567 59.29 64.82 57.05 68.32C55.4167 70.84 53.6433 73.2667 51.73 75.6C49.8633 77.9333 47.8333 80.15 45.64 82.25C45.22 82.6233 44.73 82.9967 44.17 83.37C43.61 83.7433 43.0267 84.0233 42.42 84.21C41.86 84.35 41.3 84.35 40.74 84.21C40.18 84.07 39.69 83.65 39.27 82.95C38.9433 82.39 38.78 81.8067 38.78 81.2C38.8267 80.5467 38.9433 79.8933 39.13 79.24C39.3633 78.5867 39.62 77.9567 39.9 77.35C40.2267 76.7433 40.5067 76.1833 40.74 75.67C42.2333 72.6367 43.96 69.7667 45.92 67.06C47.9267 64.3533 49.98 61.6933 52.08 59.08C54.18 56.5133 56.3033 54.0167 58.45 51.59C60.6433 49.1633 62.9067 46.76 65.24 44.38C65.3333 44.1467 65.4033 43.9367 65.45 43.75C65.4967 43.5633 65.5433 43.3533 65.59 43.12C65.87 41.86 66.15 40.5533 66.43 39.2C66.7567 37.8467 66.99 36.4933 67.13 35.14C67.3167 33.7867 67.3867 32.4333 67.34 31.08C67.2933 29.68 67.1067 28.35 66.78 27.09C66.4067 25.7833 65.8233 24.64 65.03 23.66C64.2367 22.6333 63.3033 21.7933 62.23 21.14C61.1567 20.4867 59.9667 20.02 58.66 19.74C57.4 19.4133 56.1167 19.2733 54.81 19.32C51.9633 19.4133 49.1867 20.02 46.48 21.14C43.82 22.26 41.2533 23.4967 38.78 24.85C34.2533 27.3233 30.0067 30.17 26.04 33.39C22.12 36.61 18.55 40.2033 15.33 44.17C13.6967 46.13 12.2033 48.1833 10.85 50.33C9.49667 52.4767 8.26001 54.6933 7.14001 56.98C5.83334 59.64 4.71334 62.44 3.78001 65.38C2.84667 68.2733 2.42667 71.2367 2.52001 74.27C2.61334 76.8833 3.19667 79.45 4.27001 81.97C5.39001 84.49 7.07001 86.4733 9.31001 87.92C10.29 88.5733 11.3633 89.04 12.53 89.32C13.7433 89.6 14.9567 89.7167 16.17 89.67C17.3833 89.6233 18.55 89.4133 19.67 89.04C20.79 88.62 21.8167 88.0133 22.75 87.22C22.9833 86.9867 23.1933 86.9633 23.38 87.15C23.5667 87.3367 23.5667 87.5467 23.38 87.78C22.5867 88.7133 21.6767 89.4833 20.65 90.09C19.6233 90.6967 18.5267 91.1167 17.36 91.35C14.7 91.8167 12.18 91.5133 9.80001 90.44C7.42001 89.32 5.43667 87.6867 3.85001 85.54C2.03001 83.02 0.93334 80.2433 0.560006 77.21C0.186673 74.1767 0.280006 71.19 0.840006 68.25C1.40001 65.2167 2.28667 62.2767 3.50001 59.43C4.76001 56.5833 6.16001 53.83 7.70001 51.17C9.14667 48.6967 10.7333 46.34 12.46 44.1C14.1867 41.86 16.03 39.7133 17.99 37.66C22.0033 33.5533 26.46 29.8433 31.36 26.53C36.3067 23.17 41.51 20.5333 46.97 18.62C48.3233 18.1533 49.7233 17.78 51.17 17.5C52.6633 17.22 54.1333 17.1033 55.58 17.15C57.0733 17.1967 58.52 17.4067 59.92 17.78C61.32 18.1533 62.65 18.76 63.91 19.6C65.17 20.44 66.1733 21.4433 66.92 22.61C67.7133 23.7767 68.2967 25.0133 68.67 26.32C69.09 27.6267 69.3233 29.0033 69.37 30.45C69.4167 31.8967 69.37 33.32 69.23 34.72C69.1367 35.84 68.9967 36.96 68.81 38.08C68.67 39.2 68.4833 40.2967 68.25 41.37C70.21 39.5033 72.17 37.7067 74.13 35.98C76.1367 34.2533 78.26 32.6433 80.5 31.15C81.8533 30.2167 83.2067 29.3533 84.56 28.56C85.9133 27.7667 87.3133 27.0433 88.76 26.39C89.9733 25.83 91.21 25.3167 92.47 24.85C93.7767 24.3367 95.1067 24.1733 96.46 24.36C98.1867 24.5933 99.2833 25.2933 99.75 26.46C100.263 27.6267 100.403 28.9567 100.17 30.45C99.9833 31.9433 99.5633 33.4367 98.91 34.93C98.2567 36.4233 97.6733 37.6133 97.16 38.5C95.5267 41.3467 93.7533 44.1 91.84 46.76C89.9733 49.42 88.0133 52.01 85.96 54.53C84.3267 56.5833 82.6233 58.59 80.85 60.55C79.1233 62.4633 77.3267 64.3533 75.46 66.22C78.3533 65.2867 81.2933 64.61 84.28 64.19C87.2667 63.7233 90.2767 63.5367 93.31 63.63C95.7833 63.7233 98.2567 63.98 100.73 64.4C103.203 64.82 105.537 65.6367 107.73 66.85C109.97 68.11 111.72 69.7667 112.98 71.82C114.24 73.8733 114.987 76.16 115.22 78.68C115.313 79.24 115.36 79.8 115.36 80.36C115.36 80.92 115.337 81.48 115.29 82.04C117.39 81.8067 119.49 81.62 121.59 81.48C123.69 81.34 125.79 81.2233 127.89 81.13C128.217 81.13 128.45 81.2233 128.59 81.41C128.73 81.5967 128.8 81.8067 128.8 82.04C128.8 82.2733 128.73 82.5067 128.59 82.74C128.45 82.9267 128.217 83.02 127.89 83.02C126.537 83.1133 125.207 83.23 123.9 83.37C122.593 83.4633 121.263 83.58 119.91 83.72C119.117 83.8133 118.3 83.9067 117.46 84C116.62 84.0467 115.78 84.1167 114.94 84.21C114.567 85.9833 114.007 87.71 113.26 89.39C112.56 91.0233 111.743 92.5867 110.81 94.08C109.457 96.2733 107.94 98.3267 106.26 100.24C104.58 102.2 102.76 104.043 100.8 105.77C97.02 109.13 92.89 112 88.41 114.38C83.9767 116.76 79.2867 118.557 74.34 119.77L74.27 120.05ZM59.92 58.52C61.3667 55.5333 62.6267 52.4533 63.7 49.28L61.18 52.01C57.0267 56.5833 53.13 61.32 49.49 66.22C48.6033 67.4333 47.74 68.6467 46.9 69.86C46.1067 71.0733 45.3133 72.3333 44.52 73.64C43.82 74.9 43.12 76.2767 42.42 77.77C42.1867 78.2833 41.93 78.8433 41.65 79.45C41.4167 80.01 41.2767 80.5933 41.23 81.2C41.1833 81.7133 41.2533 82.04 41.44 82.18C41.6267 82.2733 41.86 82.2967 42.14 82.25C42.42 82.1567 42.7 82.0167 42.98 81.83C43.3067 81.5967 43.5867 81.3867 43.82 81.2C44.7533 80.36 45.64 79.4733 46.48 78.54C47.4133 77.56 48.3233 76.5567 49.21 75.53C50.0967 74.4567 50.9367 73.3833 51.73 72.31C54.95 68.0167 57.7267 63.4433 60.06 58.59L59.92 58.52ZM59.43 116.55C60.13 117.297 60.9467 117.81 61.88 118.09C62.86 118.417 63.84 118.627 64.82 118.72C67.06 118.907 69.3 118.72 71.54 118.16C73.8267 117.647 76.02 117.04 78.12 116.34C82.6467 114.847 86.9167 112.84 90.93 110.32C94.99 107.8 98.6767 104.837 101.99 101.43C103.063 100.357 104.137 99.19 105.21 97.93C106.33 96.6233 107.357 95.27 108.29 93.87C109.27 92.4233 110.133 90.93 110.88 89.39C111.627 87.85 112.187 86.2867 112.56 84.7C105.98 85.4933 99.4467 86.66 92.96 88.2C86.52 89.74 80.3367 92.0033 74.41 94.99C72.45 96.0167 70.5367 97.1367 68.67 98.35C66.85 99.5633 65.1467 100.94 63.56 102.48C62.5333 103.507 61.5767 104.627 60.69 105.84C59.85 107.053 59.1967 108.29 58.73 109.55C58.6367 109.83 58.5433 110.11 58.45 110.39C58.4033 110.67 58.3333 110.95 58.24 111.23C58.1467 111.51 58.1 111.697 58.1 111.79C58.1 111.883 58.1 112.117 58.1 112.49C58.0533 113.05 58.03 113.47 58.03 113.75C58.0767 114.03 58.1933 114.427 58.38 114.94C58.38 114.987 58.4033 115.033 58.45 115.08V115.15V115.22C58.45 115.267 58.4733 115.313 58.52 115.36C58.7067 115.873 58.9867 116.293 59.36 116.62L59.43 116.55ZM144.623 80.78C144.81 80.7333 144.973 80.78 145.113 80.92C145.253 81.06 145.253 81.2233 145.113 81.41C144.46 82.2967 143.643 82.9967 142.663 83.51C141.683 84.0233 140.727 84.5133 139.793 84.98C137.553 86.0067 135.36 86.8467 133.213 87.5C132.28 87.78 131.323 88.0367 130.343 88.27C129.363 88.5033 128.383 88.69 127.403 88.83C126.563 88.9233 125.7 88.97 124.813 88.97C123.973 88.97 123.157 88.7833 122.363 88.41C121.477 87.99 120.87 87.43 120.543 86.73C120.17 85.9833 119.983 85.19 119.983 84.35C119.983 83.51 120.147 82.67 120.473 81.83C120.753 80.9433 121.103 80.1733 121.523 79.52C122.037 78.82 122.62 78.1667 123.273 77.56C123.927 76.9067 124.65 76.3933 125.443 76.02C126.097 75.74 126.773 75.67 127.473 75.81C128.22 75.95 128.71 76.4167 128.943 77.21C129.13 78.0033 129.013 78.75 128.593 79.45C128.173 80.15 127.59 80.7567 126.843 81.27C126.097 81.7833 125.28 82.1567 124.393 82.39C123.553 82.6233 122.783 82.67 122.083 82.53C121.943 83.09 121.873 83.65 121.873 84.21C121.873 85.2367 122.223 85.9367 122.923 86.31C123.623 86.6833 124.44 86.87 125.373 86.87C127.053 86.87 128.733 86.6367 130.413 86.17C132.14 85.6567 133.773 85.12 135.313 84.56C137.087 83.9067 138.743 83.2067 140.283 82.46C140.983 82.0867 141.707 81.7367 142.453 81.41C143.2 81.0367 143.97 80.78 144.763 80.64L144.623 80.78ZM123.693 79.73C123.32 80.1967 122.993 80.6633 122.713 81.13C123.413 80.8967 124.09 80.6633 124.743 80.43C125.397 80.15 125.98 79.6833 126.493 79.03C126.633 78.8433 126.773 78.61 126.913 78.33C127.1 78.0033 126.96 77.7933 126.493 77.7C126.353 77.6533 126.167 77.7 125.933 77.84C125.7 77.98 125.537 78.0967 125.443 78.19C124.743 78.61 124.137 79.1467 123.623 79.8L123.693 79.73ZM159.532 80.57C159.859 80.3833 160.162 80.43 160.442 80.71C160.769 80.9433 160.816 81.2233 160.582 81.55C160.069 82.25 159.486 82.88 158.832 83.44C158.226 84 157.596 84.56 156.942 85.12C155.636 86.2867 154.329 87.3833 153.022 88.41C151.809 89.3433 150.502 90.3233 149.102 91.35C147.702 92.33 146.256 93.0533 144.762 93.52C144.109 93.7067 143.432 93.7767 142.732 93.73C142.079 93.6833 141.496 93.4033 140.982 92.89C140.469 92.3767 140.236 91.8167 140.282 91.21C140.329 90.5567 140.446 89.9267 140.632 89.32C140.912 88.3867 141.239 87.4067 141.612 86.38C142.032 85.3533 142.522 84.3733 143.082 83.44L141.192 84.49C140.632 84.8633 140.096 85.2367 139.582 85.61C139.069 85.9833 138.556 86.3567 138.042 86.73C137.669 87.0567 137.296 87.36 136.922 87.64C136.549 87.8733 136.106 87.99 135.592 87.99C135.359 87.99 135.149 87.9433 134.962 87.85C134.776 87.71 134.659 87.5233 134.612 87.29C134.472 86.45 134.566 85.6333 134.892 84.84C135.219 84 135.592 83.23 136.012 82.53C136.526 81.6433 137.109 80.78 137.762 79.94C138.416 79.1 139.139 78.3533 139.932 77.7C140.446 77.28 141.052 76.8833 141.752 76.51C142.452 76.1367 143.106 76.23 143.712 76.79C144.086 77.1633 144.412 77.6533 144.692 78.26C144.972 78.8667 145.159 79.4967 145.252 80.15H145.462C145.696 80.0567 145.906 80.1267 146.092 80.36C146.326 80.5467 146.396 80.7567 146.302 80.99C146.209 81.27 146.116 81.4567 146.022 81.55C146.022 81.7367 145.999 81.8767 145.952 81.97C145.719 82.5767 145.416 83.16 145.042 83.72C144.716 84.2333 144.412 84.77 144.132 85.33C143.806 85.9367 143.526 86.5433 143.292 87.15C143.059 87.7567 142.826 88.3867 142.592 89.04C142.499 89.32 142.406 89.6233 142.312 89.95C142.219 90.23 142.149 90.51 142.102 90.79C142.056 91.3967 142.219 91.77 142.592 91.91C143.012 92.0033 143.479 92.0033 143.992 91.91C144.646 91.77 145.252 91.5367 145.812 91.21C146.372 90.8833 146.909 90.5567 147.422 90.23C148.542 89.53 149.616 88.7833 150.642 87.99C151.716 87.1967 152.766 86.38 153.792 85.54C154.726 84.7467 155.636 83.9067 156.522 83.02C157.409 82.1333 158.389 81.3867 159.462 80.78L159.532 80.57ZM140.702 82.67C141.216 82.3433 141.752 82.0167 142.312 81.69C142.919 81.3633 143.526 81.06 144.132 80.78C143.992 80.3133 143.806 79.8467 143.572 79.38C143.386 78.9133 143.152 78.54 142.872 78.26C142.779 78.26 142.709 78.2833 142.662 78.33C142.569 78.4233 142.476 78.4933 142.382 78.54C142.336 78.54 142.266 78.5633 142.172 78.61C141.892 78.7967 141.612 79.0067 141.332 79.24C141.099 79.4733 140.866 79.7067 140.632 79.94C139.606 80.9667 138.696 82.1333 137.902 83.44C137.716 83.72 137.529 84.0233 137.342 84.35C137.109 84.6767 136.922 85.0267 136.782 85.4C137.016 85.1667 137.249 84.9567 137.482 84.77C137.716 84.5367 137.902 84.3733 138.042 84.28C138.882 83.6733 139.699 83.1367 140.492 82.67H140.702ZM175.661 80.43C175.894 80.2433 176.127 80.2433 176.361 80.43C176.641 80.6167 176.687 80.85 176.501 81.13C175.707 82.2967 174.821 83.37 173.841 84.35C172.907 85.33 171.904 86.2867 170.831 87.22C169.524 88.3867 168.194 89.53 166.841 90.65C165.534 91.7233 164.181 92.7967 162.781 93.87C161.661 94.71 160.517 95.55 159.351 96.39C158.184 97.1833 156.994 97.93 155.781 98.63C154.987 99.0967 154.124 99.54 153.191 99.96C152.257 100.38 151.324 100.59 150.391 100.59C149.597 100.59 148.991 100.38 148.571 99.96C148.151 99.54 147.847 99.0267 147.661 98.42C147.474 97.8133 147.381 97.16 147.381 96.46C147.334 95.76 147.357 95.13 147.451 94.57C147.731 92.19 148.384 89.88 149.411 87.64C150.437 85.3533 151.417 83.1367 152.351 80.99C153.377 78.6567 154.427 76.37 155.501 74.13C156.621 71.8433 157.741 69.5567 158.861 67.27H158.231C156.784 67.3633 155.337 67.5033 153.891 67.69C152.491 67.83 151.091 68.0167 149.691 68.25C148.431 68.4833 147.171 68.74 145.911 69.02C144.651 69.3 143.367 69.4867 142.061 69.58C141.827 69.6733 141.641 69.58 141.501 69.3C141.314 68.9733 141.407 68.74 141.781 68.6C143.414 67.9467 145.141 67.5033 146.961 67.27C148.781 66.99 150.554 66.7333 152.281 66.5C154.614 66.1733 157.041 65.8933 159.561 65.66C161.147 62.58 162.734 59.5 164.321 56.42C165.907 53.34 167.447 50.2367 168.941 47.11C169.127 46.7367 169.431 46.6433 169.851 46.83C170.271 47.0167 170.411 47.2967 170.271 47.67C170.037 48.4167 169.734 49.14 169.361 49.84C169.034 50.54 168.684 51.24 168.311 51.94C167.284 54.0867 166.234 56.21 165.161 58.31C164.134 60.41 163.084 62.5333 162.011 64.68L161.591 65.52H162.431C163.317 65.4733 164.181 65.45 165.021 65.45C165.907 65.4033 166.794 65.38 167.681 65.38C168.521 65.38 169.384 65.38 170.271 65.38C171.157 65.3333 172.021 65.38 172.861 65.52C173.234 65.6133 173.607 65.7767 173.981 66.01C174.354 66.1967 174.587 66.5233 174.681 66.99C174.774 67.3633 174.704 67.69 174.471 67.97C174.284 68.25 174.004 68.4367 173.631 68.53C173.397 68.5767 173.234 68.4833 173.141 68.25C173.047 68.0167 173.117 67.8533 173.351 67.76C173.537 67.7133 173.584 67.6433 173.491 67.55C173.444 67.4567 173.351 67.3867 173.211 67.34C173.071 67.2467 172.907 67.1767 172.721 67.13C172.534 67.0833 172.417 67.06 172.371 67.06C172.044 67.0133 171.717 66.99 171.391 66.99C171.111 66.99 170.807 66.99 170.481 66.99H166.281C164.461 66.99 162.641 67.06 160.821 67.2C159.701 69.4867 158.581 71.7733 157.461 74.06C156.387 76.3467 155.314 78.68 154.241 81.06C153.727 82.18 153.237 83.3 152.771 84.42C152.304 85.54 151.837 86.66 151.371 87.78C150.951 88.8533 150.554 89.95 150.181 91.07C149.761 92.1433 149.457 93.2633 149.271 94.43C149.177 94.99 149.131 95.6433 149.131 96.39C149.084 97.1367 149.201 97.7667 149.481 98.28C149.574 98.4667 149.667 98.56 149.761 98.56C149.807 98.6067 149.877 98.6533 149.971 98.7C150.204 98.7933 150.484 98.7933 150.811 98.7C151.091 98.6533 151.347 98.5833 151.581 98.49C152.607 98.1633 153.587 97.7433 154.521 97.23C155.454 96.67 156.364 96.11 157.251 95.55C158.417 94.7567 159.561 93.9633 160.681 93.17C161.801 92.33 162.897 91.4667 163.971 90.58C165.931 88.9467 167.821 87.2667 169.641 85.54C171.507 83.8133 173.421 82.1333 175.381 80.5L175.661 80.43ZM193.338 79.52C193.012 78.3067 192.872 77.07 192.918 75.81C193.012 74.55 193.198 73.3133 193.478 72.1C193.805 70.8867 194.202 69.6967 194.668 68.53C195.182 67.3167 195.695 66.15 196.208 65.03C198.495 60.3167 201.295 55.9533 204.608 51.94C207.922 47.9267 211.562 44.24 215.528 40.88C219.588 37.38 223.835 34.2067 228.268 31.36C232.748 28.4667 237.462 25.97 242.408 23.87C247.542 21.7233 252.815 20.09 258.228 18.97C263.642 17.85 269.125 17.2433 274.678 17.15C275.798 17.15 276.918 17.1733 278.038 17.22C279.205 17.2667 280.348 17.4067 281.468 17.64C282.588 17.8267 283.662 18.1533 284.688 18.62C285.762 19.04 286.718 19.6467 287.558 20.44C288.538 21.3267 289.238 22.3533 289.658 23.52C290.125 24.64 290.382 25.83 290.428 27.09C290.475 28.3033 290.382 29.54 290.148 30.8C289.915 32.06 289.612 33.25 289.238 34.37C288.445 36.89 287.395 39.2467 286.088 41.44C284.782 43.5867 283.428 45.7567 282.028 47.95C280.535 50.2833 279.042 52.5933 277.548 54.88C276.102 57.1667 274.608 59.4533 273.068 61.74C269.988 66.3133 266.908 70.8633 263.828 75.39C260.748 79.9167 257.832 84.5833 255.078 89.39C253.725 91.77 252.442 94.1967 251.228 96.67C250.062 99.0967 248.965 101.57 247.938 104.09C247.425 105.35 246.935 106.61 246.468 107.87C246.048 109.177 245.652 110.483 245.278 111.79C245.092 112.397 244.928 113.073 244.788 113.82C244.648 114.567 244.602 115.313 244.648 116.06C244.695 116.807 244.882 117.46 245.208 118.02C245.535 118.627 246.095 119.07 246.888 119.35C247.168 119.443 247.285 119.63 247.238 119.91C247.238 120.237 247.075 120.4 246.748 120.4C245.768 120.4 244.905 120.12 244.158 119.56C243.458 119 242.945 118.253 242.618 117.32C242.245 116.107 242.175 114.87 242.408 113.61C242.688 112.397 243.015 111.207 243.388 110.04C243.762 108.78 244.158 107.52 244.578 106.26C245.045 105.047 245.535 103.833 246.048 102.62C247.028 100.193 248.078 97.8133 249.198 95.48C250.365 93.1467 251.602 90.8367 252.908 88.55C255.522 83.9767 258.298 79.5433 261.238 75.25C264.178 70.91 267.118 66.5467 270.058 62.16C271.552 59.9667 273.022 57.7967 274.468 55.65C275.915 53.4567 277.315 51.24 278.668 49C280.022 46.8533 281.398 44.7533 282.798 42.7C284.245 40.6 285.435 38.36 286.368 35.98C286.788 34.9533 287.185 33.81 287.558 32.55C287.932 31.2433 288.142 29.96 288.188 28.7C288.282 27.3933 288.142 26.1567 287.768 24.99C287.442 23.7767 286.765 22.75 285.738 21.91C284.852 21.1633 283.848 20.6267 282.728 20.3C281.608 19.9267 280.442 19.6933 279.228 19.6C278.015 19.46 276.802 19.4133 275.588 19.46C274.375 19.46 273.232 19.4833 272.158 19.53C266.838 19.7633 261.612 20.51 256.478 21.77C251.392 22.9833 246.445 24.6633 241.638 26.81C236.878 28.91 232.282 31.43 227.848 34.37C223.462 37.2633 219.308 40.46 215.388 43.96C211.655 47.32 208.248 50.96 205.168 54.88C202.088 58.7533 199.498 62.9767 197.398 67.55C196.885 68.6233 196.418 69.79 195.998 71.05C195.578 72.2633 195.298 73.5 195.158 74.76C195.018 76.02 195.042 77.28 195.228 78.54C195.462 79.7533 195.998 80.8733 196.838 81.9C197.492 82.74 198.262 83.4167 199.148 83.93C200.082 84.4433 201.062 84.8167 202.088 85.05C203.115 85.2833 204.165 85.4233 205.238 85.47C206.312 85.47 207.338 85.4233 208.318 85.33C210.932 85.05 213.475 84.42 215.948 83.44C218.422 82.4133 220.802 81.2933 223.088 80.08C225.608 78.7267 228.035 77.2567 230.368 75.67C232.702 74.0833 235.035 72.4733 237.368 70.84C239.748 69.16 242.058 67.4333 244.298 65.66C246.538 63.8867 248.778 62.09 251.018 60.27C253.165 58.4967 255.312 56.6767 257.458 54.81C259.652 52.8967 261.565 50.7733 263.198 48.44C263.385 48.2067 263.595 48.16 263.828 48.3C264.062 48.44 264.132 48.6267 264.038 48.86C263.478 50.0733 262.802 51.1933 262.008 52.22C261.215 53.2467 260.352 54.2267 259.418 55.16C257.318 57.3067 255.125 59.36 252.838 61.32C250.552 63.2333 248.218 65.1233 245.838 66.99C241.125 70.7233 236.295 74.2233 231.348 77.49C228.968 79.0767 226.542 80.57 224.068 81.97C221.642 83.3233 219.098 84.49 216.438 85.47C214.198 86.31 211.912 86.94 209.578 87.36C207.245 87.78 204.888 87.78 202.508 87.36C200.362 86.9867 198.425 86.1467 196.698 84.84C195.018 83.4867 193.898 81.7133 193.338 79.52ZM295.208 80.43C295.441 80.2433 295.674 80.2433 295.908 80.43C296.188 80.6167 296.234 80.85 296.048 81.13C295.254 82.2967 294.368 83.37 293.388 84.35C292.454 85.33 291.451 86.2867 290.378 87.22C289.071 88.3867 287.741 89.53 286.388 90.65C285.081 91.7233 283.728 92.7967 282.328 93.87C281.208 94.71 280.064 95.55 278.898 96.39C277.731 97.1833 276.541 97.93 275.328 98.63C274.534 99.0967 273.671 99.54 272.738 99.96C271.804 100.38 270.871 100.59 269.938 100.59C269.144 100.59 268.538 100.38 268.118 99.96C267.698 99.54 267.394 99.0267 267.208 98.42C267.021 97.8133 266.928 97.16 266.928 96.46C266.881 95.76 266.904 95.13 266.998 94.57C267.278 92.19 267.931 89.88 268.958 87.64C269.984 85.3533 270.964 83.1367 271.898 80.99C272.924 78.6567 273.974 76.37 275.048 74.13C276.168 71.8433 277.288 69.5567 278.408 67.27H277.778C276.331 67.3633 274.884 67.5033 273.438 67.69C272.038 67.83 270.638 68.0167 269.238 68.25C267.978 68.4833 266.718 68.74 265.458 69.02C264.198 69.3 262.914 69.4867 261.608 69.58C261.374 69.6733 261.188 69.58 261.048 69.3C260.861 68.9733 260.954 68.74 261.328 68.6C262.961 67.9467 264.688 67.5033 266.508 67.27C268.328 66.99 270.101 66.7333 271.828 66.5C274.161 66.1733 276.588 65.8933 279.108 65.66C280.694 62.58 282.281 59.5 283.868 56.42C285.454 53.34 286.994 50.2367 288.488 47.11C288.674 46.7367 288.978 46.6433 289.398 46.83C289.818 47.0167 289.958 47.2967 289.818 47.67C289.584 48.4167 289.281 49.14 288.908 49.84C288.581 50.54 288.231 51.24 287.858 51.94C286.831 54.0867 285.781 56.21 284.708 58.31C283.681 60.41 282.631 62.5333 281.558 64.68L281.138 65.52H281.978C282.864 65.4733 283.728 65.45 284.568 65.45C285.454 65.4033 286.341 65.38 287.228 65.38C288.068 65.38 288.931 65.38 289.818 65.38C290.704 65.3333 291.568 65.38 292.408 65.52C292.781 65.6133 293.154 65.7767 293.528 66.01C293.901 66.1967 294.134 66.5233 294.228 66.99C294.321 67.3633 294.251 67.69 294.018 67.97C293.831 68.25 293.551 68.4367 293.178 68.53C292.944 68.5767 292.781 68.4833 292.688 68.25C292.594 68.0167 292.664 67.8533 292.898 67.76C293.084 67.7133 293.131 67.6433 293.038 67.55C292.991 67.4567 292.898 67.3867 292.758 67.34C292.618 67.2467 292.454 67.1767 292.268 67.13C292.081 67.0833 291.964 67.06 291.918 67.06C291.591 67.0133 291.264 66.99 290.938 66.99C290.658 66.99 290.354 66.99 290.028 66.99H285.828C284.008 66.99 282.188 67.06 280.368 67.2C279.248 69.4867 278.128 71.7733 277.008 74.06C275.934 76.3467 274.861 78.68 273.788 81.06C273.274 82.18 272.784 83.3 272.318 84.42C271.851 85.54 271.384 86.66 270.918 87.78C270.498 88.8533 270.101 89.95 269.728 91.07C269.308 92.1433 269.004 93.2633 268.818 94.43C268.724 94.99 268.678 95.6433 268.678 96.39C268.631 97.1367 268.748 97.7667 269.028 98.28C269.121 98.4667 269.214 98.56 269.308 98.56C269.354 98.6067 269.424 98.6533 269.518 98.7C269.751 98.7933 270.031 98.7933 270.358 98.7C270.638 98.6533 270.894 98.5833 271.128 98.49C272.154 98.1633 273.134 97.7433 274.068 97.23C275.001 96.67 275.911 96.11 276.798 95.55C277.964 94.7567 279.108 93.9633 280.228 93.17C281.348 92.33 282.444 91.4667 283.518 90.58C285.478 88.9467 287.368 87.2667 289.188 85.54C291.054 83.8133 292.968 82.1333 294.928 80.5L295.208 80.43ZM330.561 0.280006C330.841 0.0933419 331.098 0.140011 331.331 0.420013C331.611 0.653346 331.658 0.910011 331.471 1.19001C331.331 1.47001 331.168 1.75001 330.981 2.03001C330.795 2.31001 330.585 2.59001 330.351 2.87001L329.721 3.71001C329.581 3.89668 329.441 4.08334 329.301 4.27001C329.161 4.41001 329.045 4.57334 328.951 4.76001C328.578 5.32001 328.228 5.90335 327.901 6.51001C327.575 7.07001 327.248 7.65334 326.921 8.26001C326.268 9.47335 325.638 10.71 325.031 11.97C324.425 13.23 323.818 14.49 323.211 15.75C320.878 20.6967 318.568 25.6433 316.281 30.59C313.995 35.49 311.731 40.4367 309.491 45.43C308.371 47.9033 307.251 50.3767 306.131 52.85C305.011 55.2767 303.985 57.75 303.051 60.27C302.585 61.4833 302.141 62.6967 301.721 63.91C301.348 65.0767 300.998 66.2667 300.671 67.48C300.298 68.74 300.018 70 299.831 71.26C299.831 71.3067 299.785 71.5167 299.691 71.89C299.645 72.2167 299.598 72.59 299.551 73.01C299.505 73.3833 299.481 73.7333 299.481 74.06C299.481 74.34 299.528 74.48 299.621 74.48C299.855 74.3867 300.018 74.4567 300.111 74.69C300.251 74.8767 300.251 75.0633 300.111 75.25C299.878 75.5767 299.575 75.7167 299.201 75.67C298.875 75.6233 298.571 75.4833 298.291 75.25C297.778 74.7833 297.521 74.27 297.521 73.71C297.521 73.1033 297.568 72.4967 297.661 71.89C297.895 70.35 298.198 68.8333 298.571 67.34C298.945 65.8467 299.388 64.3533 299.901 62.86C300.835 60.1067 301.861 57.4233 302.981 54.81C304.148 52.1967 305.338 49.5833 306.551 46.97C307.811 44.17 309.071 41.3933 310.331 38.64C311.638 35.84 312.945 33.04 314.251 30.24C315.558 27.44 316.841 24.6867 318.101 21.98C319.408 19.2267 320.738 16.45 322.091 13.65C322.698 12.4367 323.305 11.2233 323.911 10.01C324.518 8.79668 325.171 7.58334 325.871 6.37001C326.245 5.76334 326.618 5.18001 326.991 4.62001C327.365 4.06001 327.738 3.52334 328.111 3.01001C328.485 2.54334 328.835 2.07668 329.161 1.61001C329.535 1.14334 329.978 0.746678 330.491 0.420013L330.561 0.280006ZM296.401 87.08C296.821 87.4067 297.125 87.85 297.311 88.41C297.498 88.97 297.615 89.5767 297.661 90.23C297.755 90.8367 297.755 91.4667 297.661 92.12C297.615 92.7267 297.568 93.2633 297.521 93.73C297.148 96.2967 296.191 98.6067 294.651 100.66C294.511 100.847 294.325 100.987 294.091 101.08C293.905 101.173 293.695 101.15 293.461 101.01C292.481 100.357 291.968 99.47 291.921 98.35C291.875 97.2767 291.991 96.2033 292.271 95.13C292.691 93.59 293.181 92.0267 293.741 90.44C293.975 89.88 294.185 89.2967 294.371 88.69C294.605 88.0833 294.978 87.5933 295.491 87.22C295.538 87.1733 295.608 87.15 295.701 87.15C295.841 86.9167 296.051 86.8933 296.331 87.08H296.401ZM295.841 93.59C295.981 92.47 295.981 91.3267 295.841 90.16C295.841 90.02 295.795 89.81 295.701 89.53L295.281 90.58C295.095 91.0933 294.908 91.63 294.721 92.19C294.581 92.7033 294.441 93.2167 294.301 93.73C294.208 94.0567 294.091 94.4533 293.951 94.92C293.811 95.34 293.695 95.7833 293.601 96.25C293.508 96.7167 293.461 97.1833 293.461 97.65C293.461 98.1167 293.555 98.5133 293.741 98.84C294.768 97.2067 295.421 95.48 295.701 93.66L295.841 93.59Z" fill="#FF5518"/>
</svg>
