<svg width="263" height="219" viewBox="0 0 263 219" fill="none" xmlns="http://www.w3.org/2000/svg">
<path d="M77.5128 134.91C76.0661 135.283 74.4094 135.587 72.5428 135.82C70.6761 136.053 68.8561 136.053 67.0828 135.82C65.3094 135.633 63.6994 135.097 62.2528 134.21C60.8528 133.37 59.8728 131.993 59.3128 130.08C58.9394 128.96 58.8228 127.793 58.9628 126.58C59.1494 125.367 59.4528 124.223 59.8728 123.15C60.6661 121.19 61.7394 119.37 63.0928 117.69C64.4928 116.057 66.0328 114.563 67.7128 113.21C69.4394 111.903 71.2361 110.713 73.1028 109.64C75.0161 108.567 76.9061 107.61 78.7728 106.77C84.6994 104.063 90.7894 102.01 97.0428 100.61C103.296 99.1633 109.643 98.09 116.083 97.39C116.223 96.0833 116.199 94.7767 116.013 93.47C115.826 92.1633 115.429 90.8567 114.823 89.55C113.796 87.31 112.256 85.6067 110.203 84.44C108.196 83.2733 106.026 82.4333 103.693 81.92C101.313 81.4067 98.8861 81.15 96.4128 81.15C93.9394 81.1033 91.4894 81.22 89.0628 81.5C84.0694 82.06 79.1694 83.3433 74.3628 85.35C73.4294 86.19 72.4961 87.0067 71.5628 87.8C70.6761 88.5933 69.7428 89.3633 68.7628 90.11C67.5494 91.0433 66.2661 91.8367 64.9128 92.49C63.6061 93.0967 62.1828 93.4233 60.6428 93.47C60.1761 93.47 59.8261 93.2367 59.5928 92.77C59.4061 92.2567 59.4994 91.8367 59.8728 91.51C60.8994 90.67 61.9261 89.8767 62.9528 89.13C64.0261 88.3367 65.1228 87.6133 66.2428 86.96C67.3628 86.26 68.4828 85.6067 69.6028 85C70.7694 84.3933 71.9594 83.8333 73.1728 83.32C76.6728 80.1467 79.9628 76.81 83.0428 73.31C86.1228 69.81 89.0394 66.17 91.7928 62.39C93.4728 60.1033 95.0828 57.7233 96.6228 55.25C97.4161 53.99 98.1628 52.7067 98.8628 51.4C99.6094 50.0933 100.193 48.7167 100.613 47.27C100.846 46.6167 101.033 45.8933 101.173 45.1C101.359 44.26 101.336 43.5133 101.103 42.86C100.869 42.3 100.496 41.95 99.9828 41.81C99.5161 41.6233 99.0261 41.5533 98.5128 41.6C97.2061 41.6933 95.9228 42.02 94.6628 42.58C93.4028 43.14 92.2128 43.7 91.0928 44.26C87.1728 46.2667 83.5094 48.67 80.1028 51.47C76.7428 54.2233 73.5228 57.1633 70.4428 60.29C69.3694 64.3967 67.9694 68.3633 66.2428 72.19C64.5161 76.0167 62.5328 79.68 60.2928 83.18C58.6594 85.7 56.8861 88.1267 54.9728 90.46C53.1061 92.7933 51.0761 95.01 48.8828 97.11C48.4628 97.4833 47.9728 97.8567 47.4128 98.23C46.8528 98.6033 46.2694 98.8833 45.6628 99.07C45.1028 99.21 44.5428 99.21 43.9828 99.07C43.4228 98.93 42.9328 98.51 42.5128 97.81C42.1861 97.25 42.0228 96.6667 42.0228 96.06C42.0694 95.4067 42.1861 94.7533 42.3728 94.1C42.6061 93.4467 42.8628 92.8167 43.1428 92.21C43.4694 91.6033 43.7494 91.0433 43.9828 90.53C45.4761 87.4967 47.2028 84.6267 49.1628 81.92C51.1694 79.2133 53.2228 76.5533 55.3228 73.94C57.4228 71.3733 59.5461 68.8767 61.6928 66.45C63.8861 64.0233 66.1494 61.62 68.4828 59.24C68.5761 59.0067 68.6461 58.7967 68.6928 58.61C68.7394 58.4233 68.7861 58.2133 68.8328 57.98C69.1128 56.72 69.3928 55.4133 69.6728 54.06C69.9994 52.7067 70.2328 51.3533 70.3728 50C70.5594 48.6467 70.6294 47.2933 70.5828 45.94C70.5361 44.54 70.3494 43.21 70.0228 41.95C69.6494 40.6433 69.0661 39.5 68.2728 38.52C67.4794 37.4933 66.5461 36.6533 65.4728 36C64.3994 35.3467 63.2094 34.88 61.9028 34.6C60.6428 34.2733 59.3594 34.1333 58.0528 34.18C55.2061 34.2733 52.4294 34.88 49.7228 36C47.0628 37.12 44.4961 38.3567 42.0228 39.71C37.4961 42.1833 33.2494 45.03 29.2828 48.25C25.3628 51.47 21.7928 55.0633 18.5728 59.03C16.9394 60.99 15.4461 63.0433 14.0928 65.19C12.7394 67.3367 11.5028 69.5533 10.3828 71.84C9.07611 74.5 7.95611 77.3 7.02277 80.24C6.08944 83.1333 5.66944 86.0967 5.76277 89.13C5.85611 91.7433 6.43944 94.31 7.51277 96.83C8.63277 99.35 10.3128 101.333 12.5528 102.78C13.5328 103.433 14.6061 103.9 15.7728 104.18C16.9861 104.46 18.1994 104.577 19.4128 104.53C20.6261 104.483 21.7928 104.273 22.9128 103.9C24.0328 103.48 25.0594 102.873 25.9928 102.08C26.2261 101.847 26.4361 101.823 26.6228 102.01C26.8094 102.197 26.8094 102.407 26.6228 102.64C25.8294 103.573 24.9194 104.343 23.8928 104.95C22.8661 105.557 21.7694 105.977 20.6028 106.21C17.9428 106.677 15.4228 106.373 13.0428 105.3C10.6628 104.18 8.67944 102.547 7.09277 100.4C5.27277 97.88 4.17611 95.1033 3.80277 92.07C3.42944 89.0367 3.52277 86.05 4.08277 83.11C4.64277 80.0767 5.52944 77.1367 6.74277 74.29C8.00277 71.4433 9.40277 68.69 10.9428 66.03C12.3894 63.5567 13.9761 61.2 15.7028 58.96C17.4294 56.72 19.2728 54.5733 21.2328 52.52C25.2461 48.4133 29.7028 44.7033 34.6028 41.39C39.5494 38.03 44.7528 35.3933 50.2128 33.48C51.5661 33.0133 52.9661 32.64 54.4128 32.36C55.9061 32.08 57.3761 31.9633 58.8228 32.01C60.3161 32.0567 61.7628 32.2667 63.1628 32.64C64.5628 33.0133 65.8928 33.62 67.1528 34.46C68.4128 35.3 69.4161 36.3033 70.1628 37.47C70.9561 38.6367 71.5394 39.8733 71.9128 41.18C72.3328 42.4867 72.5661 43.8633 72.6128 45.31C72.6594 46.7567 72.6128 48.18 72.4728 49.58C72.3794 50.7 72.2394 51.82 72.0528 52.94C71.9128 54.06 71.7261 55.1567 71.4928 56.23C73.4528 54.3633 75.4128 52.5667 77.3728 50.84C79.3794 49.1133 81.5028 47.5033 83.7428 46.01C85.0961 45.0767 86.4494 44.2133 87.8028 43.42C89.1561 42.6267 90.5561 41.9033 92.0028 41.25C93.2161 40.69 94.4528 40.1767 95.7128 39.71C97.0194 39.1967 98.3494 39.0333 99.7028 39.22C101.429 39.4533 102.526 40.1533 102.993 41.32C103.506 42.4867 103.646 43.8167 103.413 45.31C103.226 46.8033 102.806 48.2967 102.153 49.79C101.499 51.2833 100.916 52.4733 100.403 53.36C98.7694 56.2067 96.9961 58.96 95.0828 61.62C93.2161 64.28 91.2561 66.87 89.2028 69.39C87.5694 71.4433 85.8661 73.45 84.0928 75.41C82.3661 77.3233 80.5694 79.2133 78.7028 81.08C81.5961 80.1467 84.5361 79.47 87.5228 79.05C90.5094 78.5833 93.5194 78.3967 96.5528 78.49C99.0261 78.5833 101.499 78.84 103.973 79.26C106.446 79.68 108.779 80.4967 110.973 81.71C113.213 82.97 114.963 84.6267 116.223 86.68C117.483 88.7333 118.229 91.02 118.463 93.54C118.556 94.1 118.603 94.66 118.603 95.22C118.603 95.78 118.579 96.34 118.533 96.9C120.633 96.6667 122.733 96.48 124.833 96.34C126.933 96.2 129.033 96.0833 131.133 95.99C131.459 95.99 131.693 96.0833 131.833 96.27C131.973 96.4567 132.043 96.6667 132.043 96.9C132.043 97.1333 131.973 97.3667 131.833 97.6C131.693 97.7867 131.459 97.88 131.133 97.88C129.779 97.9733 128.449 98.09 127.143 98.23C125.836 98.3233 124.506 98.44 123.153 98.58C122.359 98.6733 121.543 98.7667 120.703 98.86C119.863 98.9067 119.023 98.9767 118.183 99.07C117.809 100.843 117.249 102.57 116.503 104.25C115.803 105.883 114.986 107.447 114.053 108.94C112.699 111.133 111.183 113.187 109.503 115.1C107.823 117.06 106.003 118.903 104.043 120.63C100.263 123.99 96.1328 126.86 91.6528 129.24C87.2194 131.62 82.5294 133.417 77.5828 134.63L77.5128 134.91ZM63.1628 73.38C64.6094 70.3933 65.8694 67.3133 66.9428 64.14L64.4228 66.87C60.2694 71.4433 56.3728 76.18 52.7328 81.08C51.8461 82.2933 50.9828 83.5067 50.1428 84.72C49.3494 85.9333 48.5561 87.1933 47.7628 88.5C47.0628 89.76 46.3628 91.1367 45.6628 92.63C45.4294 93.1433 45.1728 93.7033 44.8928 94.31C44.6594 94.87 44.5194 95.4533 44.4728 96.06C44.4261 96.5733 44.4961 96.9 44.6828 97.04C44.8694 97.1333 45.1028 97.1567 45.3828 97.11C45.6628 97.0167 45.9428 96.8767 46.2228 96.69C46.5494 96.4567 46.8294 96.2467 47.0628 96.06C47.9961 95.22 48.8828 94.3333 49.7228 93.4C50.6561 92.42 51.5661 91.4167 52.4528 90.39C53.3394 89.3167 54.1794 88.2433 54.9728 87.17C58.1928 82.8767 60.9694 78.3033 63.3028 73.45L63.1628 73.38ZM62.6728 131.41C63.3728 132.157 64.1894 132.67 65.1228 132.95C66.1028 133.277 67.0828 133.487 68.0628 133.58C70.3028 133.767 72.5428 133.58 74.7828 133.02C77.0694 132.507 79.2628 131.9 81.3628 131.2C85.8894 129.707 90.1594 127.7 94.1728 125.18C98.2328 122.66 101.919 119.697 105.233 116.29C106.306 115.217 107.379 114.05 108.453 112.79C109.573 111.483 110.599 110.13 111.533 108.73C112.513 107.283 113.376 105.79 114.123 104.25C114.869 102.71 115.429 101.147 115.803 99.56C109.223 100.353 102.689 101.52 96.2028 103.06C89.7628 104.6 83.5794 106.863 77.6528 109.85C75.6928 110.877 73.7794 111.997 71.9128 113.21C70.0928 114.423 68.3894 115.8 66.8028 117.34C65.7761 118.367 64.8194 119.487 63.9328 120.7C63.0928 121.913 62.4394 123.15 61.9728 124.41C61.8794 124.69 61.7861 124.97 61.6928 125.25C61.6461 125.53 61.5761 125.81 61.4828 126.09C61.3894 126.37 61.3428 126.557 61.3428 126.65C61.3428 126.743 61.3428 126.977 61.3428 127.35C61.2961 127.91 61.2728 128.33 61.2728 128.61C61.3194 128.89 61.4361 129.287 61.6228 129.8C61.6228 129.847 61.6461 129.893 61.6928 129.94V130.01V130.08C61.6928 130.127 61.7161 130.173 61.7628 130.22C61.9494 130.733 62.2294 131.153 62.6028 131.48L62.6728 131.41ZM147.866 95.64C148.053 95.5933 148.216 95.64 148.356 95.78C148.496 95.92 148.496 96.0833 148.356 96.27C147.703 97.1567 146.886 97.8567 145.906 98.37C144.926 98.8833 143.969 99.3733 143.036 99.84C140.796 100.867 138.603 101.707 136.456 102.36C135.523 102.64 134.566 102.897 133.586 103.13C132.606 103.363 131.626 103.55 130.646 103.69C129.806 103.783 128.943 103.83 128.056 103.83C127.216 103.83 126.399 103.643 125.606 103.27C124.719 102.85 124.113 102.29 123.786 101.59C123.413 100.843 123.226 100.05 123.226 99.21C123.226 98.37 123.389 97.53 123.716 96.69C123.996 95.8033 124.346 95.0333 124.766 94.38C125.279 93.68 125.863 93.0267 126.516 92.42C127.169 91.7667 127.893 91.2533 128.686 90.88C129.339 90.6 130.016 90.53 130.716 90.67C131.463 90.81 131.953 91.2767 132.186 92.07C132.373 92.8633 132.256 93.61 131.836 94.31C131.416 95.01 130.833 95.6167 130.086 96.13C129.339 96.6433 128.523 97.0167 127.636 97.25C126.796 97.4833 126.026 97.53 125.326 97.39C125.186 97.95 125.116 98.51 125.116 99.07C125.116 100.097 125.466 100.797 126.166 101.17C126.866 101.543 127.683 101.73 128.616 101.73C130.296 101.73 131.976 101.497 133.656 101.03C135.383 100.517 137.016 99.98 138.556 99.42C140.329 98.7667 141.986 98.0667 143.526 97.32C144.226 96.9467 144.949 96.5967 145.696 96.27C146.443 95.8967 147.213 95.64 148.006 95.5L147.866 95.64ZM126.936 94.59C126.563 95.0567 126.236 95.5233 125.956 95.99C126.656 95.7567 127.333 95.5233 127.986 95.29C128.639 95.01 129.223 94.5433 129.736 93.89C129.876 93.7033 130.016 93.47 130.156 93.19C130.343 92.8633 130.203 92.6533 129.736 92.56C129.596 92.5133 129.409 92.56 129.176 92.7C128.943 92.84 128.779 92.9567 128.686 93.05C127.986 93.47 127.379 94.0067 126.866 94.66L126.936 94.59ZM162.775 95.43C163.102 95.2433 163.405 95.29 163.685 95.57C164.012 95.8033 164.058 96.0833 163.825 96.41C163.312 97.11 162.728 97.74 162.075 98.3C161.468 98.86 160.838 99.42 160.185 99.98C158.878 101.147 157.572 102.243 156.265 103.27C155.052 104.203 153.745 105.183 152.345 106.21C150.945 107.19 149.498 107.913 148.005 108.38C147.352 108.567 146.675 108.637 145.975 108.59C145.322 108.543 144.738 108.263 144.225 107.75C143.712 107.237 143.478 106.677 143.525 106.07C143.572 105.417 143.688 104.787 143.875 104.18C144.155 103.247 144.482 102.267 144.855 101.24C145.275 100.213 145.765 99.2333 146.325 98.3L144.435 99.35C143.875 99.7233 143.338 100.097 142.825 100.47C142.312 100.843 141.798 101.217 141.285 101.59C140.912 101.917 140.538 102.22 140.165 102.5C139.792 102.733 139.348 102.85 138.835 102.85C138.602 102.85 138.392 102.803 138.205 102.71C138.018 102.57 137.902 102.383 137.855 102.15C137.715 101.31 137.808 100.493 138.135 99.7C138.462 98.86 138.835 98.09 139.255 97.39C139.768 96.5033 140.352 95.64 141.005 94.8C141.658 93.96 142.382 93.2133 143.175 92.56C143.688 92.14 144.295 91.7433 144.995 91.37C145.695 90.9967 146.348 91.09 146.955 91.65C147.328 92.0233 147.655 92.5133 147.935 93.12C148.215 93.7267 148.402 94.3567 148.495 95.01H148.705C148.938 94.9167 149.148 94.9867 149.335 95.22C149.568 95.4067 149.638 95.6167 149.545 95.85C149.452 96.13 149.358 96.3167 149.265 96.41C149.265 96.5967 149.242 96.7367 149.195 96.83C148.962 97.4367 148.658 98.02 148.285 98.58C147.958 99.0933 147.655 99.63 147.375 100.19C147.048 100.797 146.768 101.403 146.535 102.01C146.302 102.617 146.068 103.247 145.835 103.9C145.742 104.18 145.648 104.483 145.555 104.81C145.462 105.09 145.392 105.37 145.345 105.65C145.298 106.257 145.462 106.63 145.835 106.77C146.255 106.863 146.722 106.863 147.235 106.77C147.888 106.63 148.495 106.397 149.055 106.07C149.615 105.743 150.152 105.417 150.665 105.09C151.785 104.39 152.858 103.643 153.885 102.85C154.958 102.057 156.008 101.24 157.035 100.4C157.968 99.6067 158.878 98.7667 159.765 97.88C160.652 96.9933 161.632 96.2467 162.705 95.64L162.775 95.43ZM143.945 97.53C144.458 97.2033 144.995 96.8767 145.555 96.55C146.162 96.2233 146.768 95.92 147.375 95.64C147.235 95.1733 147.048 94.7067 146.815 94.24C146.628 93.7733 146.395 93.4 146.115 93.12C146.022 93.12 145.952 93.1433 145.905 93.19C145.812 93.2833 145.718 93.3533 145.625 93.4C145.578 93.4 145.508 93.4233 145.415 93.47C145.135 93.6567 144.855 93.8667 144.575 94.1C144.342 94.3333 144.108 94.5667 143.875 94.8C142.848 95.8267 141.938 96.9933 141.145 98.3C140.958 98.58 140.772 98.8833 140.585 99.21C140.352 99.5367 140.165 99.8867 140.025 100.26C140.258 100.027 140.492 99.8167 140.725 99.63C140.958 99.3967 141.145 99.2333 141.285 99.14C142.125 98.5333 142.942 97.9967 143.735 97.53H143.945ZM178.903 95.29C179.137 95.1033 179.37 95.1033 179.603 95.29C179.883 95.4767 179.93 95.71 179.743 95.99C178.95 97.1567 178.063 98.23 177.083 99.21C176.15 100.19 175.147 101.147 174.073 102.08C172.767 103.247 171.437 104.39 170.083 105.51C168.777 106.583 167.423 107.657 166.023 108.73C164.903 109.57 163.76 110.41 162.593 111.25C161.427 112.043 160.237 112.79 159.023 113.49C158.23 113.957 157.367 114.4 156.433 114.82C155.5 115.24 154.567 115.45 153.633 115.45C152.84 115.45 152.233 115.24 151.813 114.82C151.393 114.4 151.09 113.887 150.903 113.28C150.717 112.673 150.623 112.02 150.623 111.32C150.577 110.62 150.6 109.99 150.693 109.43C150.973 107.05 151.627 104.74 152.653 102.5C153.68 100.213 154.66 97.9967 155.593 95.85C156.62 93.5167 157.67 91.23 158.743 88.99C159.863 86.7033 160.983 84.4167 162.103 82.13H161.473C160.027 82.2233 158.58 82.3633 157.133 82.55C155.733 82.69 154.333 82.8767 152.933 83.11C151.673 83.3433 150.413 83.6 149.153 83.88C147.893 84.16 146.61 84.3467 145.303 84.44C145.07 84.5333 144.883 84.44 144.743 84.16C144.557 83.8333 144.65 83.6 145.023 83.46C146.657 82.8067 148.383 82.3633 150.203 82.13C152.023 81.85 153.797 81.5933 155.523 81.36C157.857 81.0333 160.283 80.7533 162.803 80.52C164.39 77.44 165.977 74.36 167.563 71.28C169.15 68.2 170.69 65.0967 172.183 61.97C172.37 61.5967 172.673 61.5033 173.093 61.69C173.513 61.8767 173.653 62.1567 173.513 62.53C173.28 63.2767 172.977 64 172.603 64.7C172.277 65.4 171.927 66.1 171.553 66.8C170.527 68.9467 169.477 71.07 168.403 73.17C167.377 75.27 166.327 77.3933 165.253 79.54L164.833 80.38H165.673C166.56 80.3333 167.423 80.31 168.263 80.31C169.15 80.2633 170.037 80.24 170.923 80.24C171.763 80.24 172.627 80.24 173.513 80.24C174.4 80.1933 175.263 80.24 176.103 80.38C176.477 80.4733 176.85 80.6367 177.223 80.87C177.597 81.0567 177.83 81.3833 177.923 81.85C178.017 82.2233 177.947 82.55 177.713 82.83C177.527 83.11 177.247 83.2967 176.873 83.39C176.64 83.4367 176.477 83.3433 176.383 83.11C176.29 82.8767 176.36 82.7133 176.593 82.62C176.78 82.5733 176.827 82.5033 176.733 82.41C176.687 82.3167 176.593 82.2467 176.453 82.2C176.313 82.1067 176.15 82.0367 175.963 81.99C175.777 81.9433 175.66 81.92 175.613 81.92C175.287 81.8733 174.96 81.85 174.633 81.85C174.353 81.85 174.05 81.85 173.723 81.85H169.523C167.703 81.85 165.883 81.92 164.063 82.06C162.943 84.3467 161.823 86.6333 160.703 88.92C159.63 91.2067 158.557 93.54 157.483 95.92C156.97 97.04 156.48 98.16 156.013 99.28C155.547 100.4 155.08 101.52 154.613 102.64C154.193 103.713 153.797 104.81 153.423 105.93C153.003 107.003 152.7 108.123 152.513 109.29C152.42 109.85 152.373 110.503 152.373 111.25C152.327 111.997 152.443 112.627 152.723 113.14C152.817 113.327 152.91 113.42 153.003 113.42C153.05 113.467 153.12 113.513 153.213 113.56C153.447 113.653 153.727 113.653 154.053 113.56C154.333 113.513 154.59 113.443 154.823 113.35C155.85 113.023 156.83 112.603 157.763 112.09C158.697 111.53 159.607 110.97 160.493 110.41C161.66 109.617 162.803 108.823 163.923 108.03C165.043 107.19 166.14 106.327 167.213 105.44C169.173 103.807 171.063 102.127 172.883 100.4C174.75 98.6733 176.663 96.9933 178.623 95.36L178.903 95.29Z" fill="#FF5518"/>
<path d="M120.487 155.833C120.161 154.619 120.021 153.383 120.067 152.123C120.161 150.863 120.347 149.626 120.627 148.413C120.954 147.199 121.351 146.009 121.817 144.843C122.331 143.629 122.844 142.463 123.357 141.343C125.644 136.629 128.444 132.266 131.757 128.253C135.071 124.239 138.711 120.553 142.677 117.193C146.737 113.693 150.984 110.519 155.417 107.673C159.897 104.779 164.611 102.283 169.557 100.183C174.691 98.0358 179.964 96.4025 185.377 95.2825C190.791 94.1625 196.274 93.5558 201.827 93.4625C202.947 93.4625 204.067 93.4858 205.187 93.5325C206.354 93.5792 207.497 93.7192 208.617 93.9525C209.737 94.1392 210.811 94.4658 211.837 94.9325C212.911 95.3525 213.867 95.9592 214.707 96.7525C215.687 97.6392 216.387 98.6658 216.807 99.8325C217.274 100.953 217.531 102.143 217.577 103.403C217.624 104.616 217.531 105.853 217.297 107.113C217.064 108.373 216.761 109.563 216.387 110.683C215.594 113.203 214.544 115.559 213.237 117.753C211.931 119.899 210.577 122.069 209.177 124.263C207.684 126.596 206.191 128.906 204.697 131.193C203.251 133.479 201.757 135.766 200.217 138.053C197.137 142.626 194.057 147.176 190.977 151.703C187.897 156.229 184.981 160.896 182.227 165.703C180.874 168.083 179.591 170.509 178.377 172.983C177.211 175.409 176.114 177.883 175.087 180.403C174.574 181.663 174.084 182.923 173.617 184.183C173.197 185.489 172.801 186.796 172.427 188.103C172.241 188.709 172.077 189.386 171.937 190.133C171.797 190.879 171.751 191.626 171.797 192.373C171.844 193.119 172.031 193.773 172.357 194.333C172.684 194.939 173.244 195.383 174.037 195.663C174.317 195.756 174.434 195.943 174.387 196.223C174.387 196.549 174.224 196.713 173.897 196.713C172.917 196.713 172.054 196.433 171.307 195.873C170.607 195.313 170.094 194.566 169.767 193.633C169.394 192.419 169.324 191.183 169.557 189.923C169.837 188.709 170.164 187.519 170.537 186.353C170.911 185.093 171.307 183.833 171.727 182.573C172.194 181.359 172.684 180.146 173.197 178.933C174.177 176.506 175.227 174.126 176.347 171.793C177.514 169.459 178.751 167.149 180.057 164.863C182.671 160.289 185.447 155.856 188.387 151.563C191.327 147.223 194.267 142.859 197.207 138.473C198.701 136.279 200.171 134.109 201.617 131.963C203.064 129.769 204.464 127.553 205.817 125.313C207.171 123.166 208.547 121.066 209.947 119.013C211.394 116.913 212.584 114.673 213.517 112.293C213.937 111.266 214.334 110.123 214.707 108.863C215.081 107.556 215.291 106.273 215.337 105.013C215.431 103.706 215.291 102.469 214.917 101.303C214.591 100.089 213.914 99.0625 212.887 98.2225C212.001 97.4758 210.997 96.9392 209.877 96.6125C208.757 96.2392 207.591 96.0058 206.377 95.9125C205.164 95.7725 203.951 95.7258 202.737 95.7725C201.524 95.7725 200.381 95.7958 199.307 95.8425C193.987 96.0758 188.761 96.8225 183.627 98.0825C178.541 99.2958 173.594 100.976 168.787 103.123C164.027 105.223 159.431 107.743 154.997 110.683C150.611 113.576 146.457 116.773 142.537 120.273C138.804 123.633 135.397 127.273 132.317 131.193C129.237 135.066 126.647 139.289 124.547 143.863C124.034 144.936 123.567 146.103 123.147 147.363C122.727 148.576 122.447 149.813 122.307 151.073C122.167 152.333 122.191 153.593 122.377 154.853C122.611 156.066 123.147 157.186 123.987 158.213C124.641 159.053 125.411 159.729 126.297 160.243C127.231 160.756 128.211 161.129 129.237 161.363C130.264 161.596 131.314 161.736 132.387 161.783C133.461 161.783 134.487 161.736 135.467 161.643C138.081 161.363 140.624 160.733 143.097 159.753C145.571 158.726 147.951 157.606 150.237 156.393C152.757 155.039 155.184 153.569 157.517 151.983C159.851 150.396 162.184 148.786 164.517 147.153C166.897 145.473 169.207 143.746 171.447 141.973C173.687 140.199 175.927 138.403 178.167 136.583C180.314 134.809 182.461 132.989 184.607 131.123C186.801 129.209 188.714 127.086 190.347 124.753C190.534 124.519 190.744 124.473 190.977 124.613C191.211 124.753 191.281 124.939 191.187 125.173C190.627 126.386 189.951 127.506 189.157 128.533C188.364 129.559 187.501 130.539 186.567 131.473C184.467 133.619 182.274 135.673 179.987 137.633C177.701 139.546 175.367 141.436 172.987 143.303C168.274 147.036 163.444 150.536 158.497 153.803C156.117 155.389 153.691 156.883 151.217 158.283C148.791 159.636 146.247 160.803 143.587 161.783C141.347 162.623 139.061 163.253 136.727 163.673C134.394 164.093 132.037 164.093 129.657 163.673C127.511 163.299 125.574 162.459 123.847 161.153C122.167 159.799 121.047 158.026 120.487 155.833ZM222.357 156.743C222.59 156.556 222.823 156.556 223.057 156.743C223.337 156.929 223.383 157.163 223.197 157.443C222.403 158.609 221.517 159.683 220.537 160.663C219.603 161.643 218.6 162.599 217.527 163.533C216.22 164.699 214.89 165.843 213.537 166.963C212.23 168.036 210.877 169.109 209.477 170.183C208.357 171.023 207.213 171.863 206.047 172.703C204.88 173.496 203.69 174.243 202.477 174.943C201.683 175.409 200.82 175.853 199.887 176.273C198.953 176.693 198.02 176.903 197.087 176.903C196.293 176.903 195.687 176.693 195.267 176.273C194.847 175.853 194.543 175.339 194.357 174.733C194.17 174.126 194.077 173.473 194.077 172.773C194.03 172.073 194.053 171.443 194.147 170.883C194.427 168.503 195.08 166.193 196.107 163.953C197.133 161.666 198.113 159.449 199.047 157.303C200.073 154.969 201.123 152.683 202.197 150.443C203.317 148.156 204.437 145.869 205.557 143.583H204.927C203.48 143.676 202.033 143.816 200.587 144.003C199.187 144.143 197.787 144.329 196.387 144.563C195.127 144.796 193.867 145.053 192.607 145.333C191.347 145.613 190.063 145.799 188.757 145.893C188.523 145.986 188.337 145.893 188.197 145.613C188.01 145.286 188.103 145.053 188.477 144.913C190.11 144.259 191.837 143.816 193.657 143.583C195.477 143.303 197.25 143.046 198.977 142.813C201.31 142.486 203.737 142.206 206.257 141.973C207.843 138.893 209.43 135.813 211.017 132.733C212.603 129.653 214.143 126.549 215.637 123.423C215.823 123.049 216.127 122.956 216.547 123.143C216.967 123.329 217.107 123.609 216.967 123.983C216.733 124.729 216.43 125.453 216.057 126.153C215.73 126.853 215.38 127.553 215.007 128.253C213.98 130.399 212.93 132.523 211.857 134.623C210.83 136.723 209.78 138.846 208.707 140.993L208.287 141.833H209.127C210.013 141.786 210.877 141.763 211.717 141.763C212.603 141.716 213.49 141.693 214.377 141.693C215.217 141.693 216.08 141.693 216.967 141.693C217.853 141.646 218.717 141.693 219.557 141.833C219.93 141.926 220.303 142.089 220.677 142.323C221.05 142.509 221.283 142.836 221.377 143.303C221.47 143.676 221.4 144.003 221.167 144.283C220.98 144.563 220.7 144.749 220.327 144.843C220.093 144.889 219.93 144.796 219.837 144.563C219.743 144.329 219.813 144.166 220.047 144.073C220.233 144.026 220.28 143.956 220.187 143.863C220.14 143.769 220.047 143.699 219.907 143.653C219.767 143.559 219.603 143.489 219.417 143.443C219.23 143.396 219.113 143.373 219.067 143.373C218.74 143.326 218.413 143.303 218.087 143.303C217.807 143.303 217.503 143.303 217.177 143.303H212.977C211.157 143.303 209.337 143.373 207.517 143.513C206.397 145.799 205.277 148.086 204.157 150.373C203.083 152.659 202.01 154.993 200.937 157.373C200.423 158.493 199.933 159.613 199.467 160.733C199 161.853 198.533 162.973 198.067 164.093C197.647 165.166 197.25 166.263 196.877 167.383C196.457 168.456 196.153 169.576 195.967 170.743C195.873 171.303 195.827 171.956 195.827 172.703C195.78 173.449 195.897 174.079 196.177 174.593C196.27 174.779 196.363 174.873 196.457 174.873C196.503 174.919 196.573 174.966 196.667 175.013C196.9 175.106 197.18 175.106 197.507 175.013C197.787 174.966 198.043 174.896 198.277 174.803C199.303 174.476 200.283 174.056 201.217 173.543C202.15 172.983 203.06 172.423 203.947 171.863C205.113 171.069 206.257 170.276 207.377 169.483C208.497 168.643 209.593 167.779 210.667 166.893C212.627 165.259 214.517 163.579 216.337 161.853C218.203 160.126 220.117 158.446 222.077 156.813L222.357 156.743ZM257.71 76.5925C257.99 76.4058 258.247 76.4525 258.48 76.7325C258.76 76.9658 258.807 77.2225 258.62 77.5025C258.48 77.7825 258.317 78.0625 258.13 78.3425C257.944 78.6225 257.734 78.9025 257.5 79.1825L256.87 80.0225C256.73 80.2092 256.59 80.3958 256.45 80.5825C256.31 80.7225 256.194 80.8858 256.1 81.0725C255.727 81.6325 255.377 82.2158 255.05 82.8225C254.724 83.3825 254.397 83.9658 254.07 84.5725C253.417 85.7858 252.787 87.0225 252.18 88.2825C251.574 89.5425 250.967 90.8025 250.36 92.0625C248.027 97.0092 245.717 101.956 243.43 106.903C241.144 111.803 238.88 116.749 236.64 121.743C235.52 124.216 234.4 126.689 233.28 129.163C232.16 131.589 231.134 134.063 230.2 136.583C229.734 137.796 229.29 139.009 228.87 140.223C228.497 141.389 228.147 142.579 227.82 143.793C227.447 145.053 227.167 146.313 226.98 147.573C226.98 147.619 226.934 147.829 226.84 148.203C226.794 148.529 226.747 148.903 226.7 149.323C226.654 149.696 226.63 150.046 226.63 150.373C226.63 150.653 226.677 150.793 226.77 150.793C227.004 150.699 227.167 150.769 227.26 151.003C227.4 151.189 227.4 151.376 227.26 151.563C227.027 151.889 226.724 152.029 226.35 151.983C226.024 151.936 225.72 151.796 225.44 151.563C224.927 151.096 224.67 150.583 224.67 150.023C224.67 149.416 224.717 148.809 224.81 148.203C225.044 146.663 225.347 145.146 225.72 143.653C226.094 142.159 226.537 140.666 227.05 139.173C227.984 136.419 229.01 133.736 230.13 131.123C231.297 128.509 232.487 125.896 233.7 123.283C234.96 120.483 236.22 117.706 237.48 114.953C238.787 112.153 240.094 109.353 241.4 106.553C242.707 103.753 243.99 100.999 245.25 98.2925C246.557 95.5392 247.887 92.7625 249.24 89.9625C249.847 88.7492 250.454 87.5358 251.06 86.3225C251.667 85.1092 252.32 83.8958 253.02 82.6825C253.394 82.0758 253.767 81.4925 254.14 80.9325C254.514 80.3725 254.887 79.8358 255.26 79.3225C255.634 78.8558 255.984 78.3892 256.31 77.9225C256.684 77.4558 257.127 77.0592 257.64 76.7325L257.71 76.5925ZM223.55 163.393C223.97 163.719 224.274 164.163 224.46 164.723C224.647 165.283 224.764 165.889 224.81 166.543C224.904 167.149 224.904 167.779 224.81 168.433C224.764 169.039 224.717 169.576 224.67 170.043C224.297 172.609 223.34 174.919 221.8 176.973C221.66 177.159 221.474 177.299 221.24 177.393C221.054 177.486 220.844 177.463 220.61 177.323C219.63 176.669 219.117 175.783 219.07 174.663C219.024 173.589 219.14 172.516 219.42 171.443C219.84 169.903 220.33 168.339 220.89 166.753C221.124 166.193 221.334 165.609 221.52 165.003C221.754 164.396 222.127 163.906 222.64 163.533C222.687 163.486 222.757 163.463 222.85 163.463C222.99 163.229 223.2 163.206 223.48 163.393H223.55ZM222.99 169.903C223.13 168.783 223.13 167.639 222.99 166.473C222.99 166.333 222.944 166.123 222.85 165.843L222.43 166.893C222.244 167.406 222.057 167.943 221.87 168.503C221.73 169.016 221.59 169.529 221.45 170.043C221.357 170.369 221.24 170.766 221.1 171.233C220.96 171.653 220.844 172.096 220.75 172.563C220.657 173.029 220.61 173.496 220.61 173.963C220.61 174.429 220.704 174.826 220.89 175.153C221.917 173.519 222.57 171.793 222.85 169.973L222.99 169.903Z" fill="#FF5518"/>
</svg>
